HIERARCHY
ROOT Hips
{
	OFFSET 0.000000 0.000000 0.000000
	CHANNELS 6 Xposition Yposition Zposition Zrotation Yrotation Xrotation 
	JOINT LHipJoint
	{
		OFFSET 0.000000 0.000000 0.000000
		CHANNELS 3 Zrotation Yrotation Xrotation
		JOINT LeftUpLeg
		{
			OFFSET 1.363060 -1.794630 0.839290
			CHANNELS 3 Zrotation Yrotation Xrotation
			JOINT LeftLeg
			{
				OFFSET 2.448110 -6.726130 0.000000
				CHANNELS 3 Zrotation Yrotation Xrotation
				JOINT LeftFoot
				{
					OFFSET 2.562200 -7.039590 0.000000
					CHANNELS 3 Zrotation Yrotation Xrotation
					JOINT LeftToeBase
					{
						OFFSET 0.157640 -0.433110 2.322550
						CHANNELS 3 Zrotation Yrotation Xrotation
						End Site
						{
							OFFSET 0.000000 0.000000 0.000000
						}
					}
				}
			}
		}
	}
	JOINT RHipJoint
	{
		OFFSET 0.000000 0.000000 0.000000
		CHANNELS 3 Zrotation Yrotation Xrotation
		JOINT RightUpLeg
		{
			OFFSET -1.305520 -1.794630 0.839290
			CHANNELS 3 Zrotation Yrotation Xrotation
			JOINT RightLeg
			{
				OFFSET -2.542530 -6.985550 0.000000
				CHANNELS 3 Zrotation Yrotation Xrotation
				JOINT RightFoot
				{
					OFFSET -2.568260 -7.056230 0.000000
					CHANNELS 3 Zrotation Yrotation Xrotation
					JOINT RightToeBase
					{
						OFFSET -0.164730 -0.452590 2.363150
						CHANNELS 3 Zrotation Yrotation Xrotation
						End Site
						{
							OFFSET 0.000000 0.000000 0.000000
						}
					}
				}
			}
		}
	}
	JOINT LowerBack
	{
		OFFSET 0.000000 0.000000 0.000000
		CHANNELS 3 Zrotation Yrotation Xrotation
		JOINT Spine
		{
			OFFSET 0.028270 2.035590 -0.193380
			CHANNELS 3 Zrotation Yrotation Xrotation
			JOINT Spine1
			{
				OFFSET 0.056720 2.048850 -0.042750
				CHANNELS 3 Zrotation Yrotation Xrotation
				JOINT Neck
				{
					OFFSET 0.000000 0.000000 0.000000
					CHANNELS 3 Zrotation Yrotation Xrotation
					JOINT Neck1
					{
						OFFSET -0.054170 1.746240 0.172020
						CHANNELS 3 Zrotation Yrotation Xrotation
						JOINT Head
						{
							OFFSET 0.104070 1.761360 -0.123970
							CHANNELS 3 Zrotation Yrotation Xrotation
							End Site
							{
								OFFSET 0.000000 0.000000 0.000000
							}
						}
					}
				}
				JOINT LeftShoulder
				{
					OFFSET 0.000000 0.000000 0.000000
					CHANNELS 3 Zrotation Yrotation Xrotation
					JOINT LeftArm
					{
						OFFSET 3.362410 1.200890 -0.311210
						CHANNELS 3 Zrotation Yrotation Xrotation
						JOINT LeftForeArm
						{
							OFFSET 4.983000 -0.000000 -0.000000
							CHANNELS 3 Zrotation Yrotation Xrotation
							JOINT LeftHand
							{
								OFFSET 3.483560 -0.000000 -0.000000
								CHANNELS 3 Zrotation Yrotation Xrotation
								JOINT LeftFingerBase
								{
									OFFSET 0.000000 0.000000 0.000000
									CHANNELS 3 Zrotation Yrotation Xrotation
									JOINT LeftHandIndex1
									{
										OFFSET 0.715260 -0.000000 -0.000000
										CHANNELS 3 Zrotation Yrotation Xrotation
										End Site
										{
											OFFSET 0.000000 0.000000 0.000000
										}
									}
								}
								JOINT LThumb
								{
									OFFSET 0.000000 0.000000 0.000000
									CHANNELS 3 Zrotation Yrotation Xrotation
									End Site
									{
										OFFSET 0.000000 0.000000 0.000000
									}
								}
							}
						}
					}
				}
				JOINT RightShoulder
				{
					OFFSET 0.000000 0.000000 0.000000
					CHANNELS 3 Zrotation Yrotation Xrotation
					JOINT RightArm
					{
						OFFSET -3.136600 1.374050 -0.404650
						CHANNELS 3 Zrotation Yrotation Xrotation
						JOINT RightForeArm
						{
							OFFSET -5.241900 -0.000000 -0.000000
							CHANNELS 3 Zrotation Yrotation Xrotation
							JOINT RightHand
							{
								OFFSET -3.444170 -0.000000 -0.000000
								CHANNELS 3 Zrotation Yrotation Xrotation
								JOINT RightFingerBase
								{
									OFFSET 0.000000 0.000000 0.000000
									CHANNELS 3 Zrotation Yrotation Xrotation
									JOINT RightHandIndex1
									{
										OFFSET -0.622530 -0.000000 -0.000000
										CHANNELS 3 Zrotation Yrotation Xrotation
										End Site
										{
											OFFSET 0.000000 0.000000 0.000000
										}
									}
								}
								JOINT RThumb
								{
									OFFSET 0.000000 0.000000 0.000000
									CHANNELS 3 Zrotation Yrotation Xrotation
									End Site
									{
										OFFSET 0.000000 0.000000 0.000000
									}
								}
							}
						}
					}
				}
			}
		}
	}
}
MOTION
Frames: 9
Frame Time: 0.008333
-10.575395 17.477584 3.160842 -153.408003 -83.574319 156.424704 17.818742 2.681688 -1.699897 -28.202359 -23.129190 -11.909226 -10.556428 9.843522 18.121716 0.865280 -7.822827 -4.877095 0.205600 -2.919800 -8.055500 -19.997278 -4.622696 -5.399726 35.524463 -1.158161 17.009141 11.523851 -3.355646 14.794405 -4.814949 -5.381400 -36.986367 -0.308600 3.571300 -9.873700 0.995278 3.062519 11.703813 1.559258 3.866728 -5.005657 3.303597 2.087205 -15.274046 -2.671289 -2.183407 -23.462717 1.136320 -2.977424 15.194057 -1.618900 -1.917900 14.031500 8.735256 -7.135962 0.983050 -90.787594 19.678015 6.126697 19.889869 -32.732314 -7.231916 0.057015 2.387949 5.352995 33.150966 26.092137 14.540600 -7.125000 0.000000 0.000000 4.808400 57.058500 1.422900 -8.911135 6.574340 1.001446 68.742301 8.379237 37.724410 -37.305239 47.624105 -14.859186 0.241264 -2.171332 17.295488 -34.683463 -24.835550 15.098500 7.125000 0.000000 0.000000 -7.533700 -56.379000 2.110500 
-10.438129 17.446143 3.108477 -158.836298 -82.736013 161.992623 17.544358 2.645542 -1.661013 -27.440538 -22.824720 -12.927169 -10.429420 10.174220 18.559615 0.956911 -8.193433 -5.063580 0.230400 -3.089500 -8.528100 -20.264274 -4.481546 -5.496868 36.268032 -0.098942 17.627708 11.952300 -2.723013 13.157124 -5.153675 -4.932409 -38.331937 -0.090200 1.937200 -5.332000 0.954724 3.256646 11.604113 1.507050 4.123467 -4.987482 2.943707 2.193873 -15.163513 -2.346138 -1.960129 -23.387354 1.057765 -2.780869 15.285201 -1.697700 -1.812000 14.067500 8.713014 -7.093995 0.976040 -90.416653 19.530597 7.229132 21.009368 -33.844822 -7.762260 -0.067997 2.379218 4.446069 33.249495 28.602098 16.037600 -7.125000 0.000000 0.000000 4.544400 59.892100 1.653700 -8.943210 6.584660 1.007109 69.339433 7.799779 38.302221 -36.669909 47.301681 -14.464861 0.212816 -2.180198 17.220742 -34.845399 -24.898228 15.196298 7.125000 0.000000 0.000000 -7.686600 -56.459000 2.168600 
-10.294071 17.418427 3.055455 -161.285168 -81.931270 164.569269 17.334168 2.558568 -1.656488 -26.559599 -22.702404 -13.753890 -10.304220 10.423876 18.867974 1.056154 -8.455882 -5.268046 0.240100 -3.153100 -8.705200 -20.521948 -4.373543 -5.568544 37.303358 0.964313 18.314284 12.517530 -2.009608 11.341364 -5.304551 -6.843977 -40.110402 -0.154700 2.534100 -6.984300 1.167733 3.369245 11.589830 1.462953 4.312672 -4.975307 2.541687 2.236540 -15.094068 -2.063700 -1.727549 -23.304507 1.086647 -2.553691 15.364306 -1.693400 -1.685700 14.096100 8.686678 -7.067904 0.973165 -90.097035 19.479191 8.316758 22.183143 -34.917658 -8.264224 -0.146062 2.353977 3.454922 33.258861 28.837938 16.202500 -7.125000 0.000000 0.000000 4.542000 60.183800 1.684500 -8.983951 6.588193 1.009193 69.976651 7.315603 38.735234 -36.059695 46.980366 -14.077039 0.195291 -2.199266 17.147927 -34.598517 -24.887945 15.042100 7.125000 0.000000 0.000000 -7.388800 -56.367400 2.067500 
-10.141468 17.394436 3.001228 -162.592482 -81.141962 166.084826 17.147964 2.429675 -1.667630 -25.525092 -22.747129 -14.569027 -10.198438 10.611895 19.000462 1.153034 -8.546035 -5.454699 0.237100 -3.133400 -8.650500 -20.816537 -4.235347 -5.608191 38.988275 2.918869 19.407348 13.164879 -1.137871 9.150951 -5.737354 -7.972833 -42.590584 -0.068000 1.682400 -4.628700 1.484873 3.453981 11.623348 1.406180 4.483162 -4.996678 2.044210 2.250071 -15.153323 -1.683810 -1.503159 -23.222097 1.080415 -2.375141 15.420046 -1.732500 -1.571400 14.110800 8.656248 -7.053711 0.964779 -89.697761 19.415117 9.339914 23.195468 -35.794106 -8.700739 -0.193838 2.323578 2.536934 33.499115 28.423579 16.129000 -7.125000 0.000000 0.000000 4.931700 59.811400 1.785600 -9.023701 6.591607 1.006792 70.651113 6.869442 39.090015 -35.423609 46.627086 -13.669906 0.180077 -2.223956 16.937429 -34.223820 -24.707300 14.716800 7.125000 0.000000 0.000000 -6.962100 -56.049900 1.893600 
-9.987113 17.376360 2.943605 -163.694348 -80.368925 167.482201 16.965899 2.274431 -1.695764 -24.413667 -22.833552 -15.418100 -10.109384 10.770296 19.021561 1.248028 -8.494894 -5.681050 0.242700 -3.170200 -8.752900 -21.101022 -4.083539 -5.609824 40.739933 5.182833 20.480142 13.756950 -0.256017 7.029518 -6.078669 -9.549993 -44.907388 -0.033600 1.183000 -3.252500 1.834590 3.582267 11.602643 1.292530 4.722186 -5.044386 1.317020 2.267767 -15.283559 -1.203645 -1.355527 -22.963200 1.105379 -2.353084 15.400174 -1.781800 -1.504200 14.032700 8.602194 -7.032995 0.949388 -88.971858 19.285060 10.517666 24.025517 -36.475530 -9.077458 -0.257844 2.284449 1.769551 33.663368 28.733963 16.430300 -7.125000 0.000000 0.000000 5.099300 60.236100 1.898100 -9.085649 6.599931 1.003821 71.531895 6.313877 39.136199 -34.754403 46.266092 -13.261878 0.154823 -2.251506 16.771229 -33.958257 -24.292736 14.302900 7.125000 0.000000 0.000000 -6.680900 -55.483200 1.724700 
-9.834838 17.362557 2.883352 -166.313940 -79.708382 170.367303 16.786107 2.113621 -1.737522 -23.687182 -22.990661 -16.101650 -10.074811 10.899114 18.972331 1.329164 -8.352529 -6.256865 0.244700 -3.183100 -8.788800 -21.367118 -3.961964 -5.555810 42.174574 7.677247 21.575362 14.206057 0.597334 5.128181 -6.397033 -10.806804 -46.893400 -0.000100 0.075000 -0.206100 1.890586 3.750338 11.567591 1.112292 4.993082 -5.090645 0.488850 2.298410 -15.405525 -0.891316 -1.331097 -22.685341 1.338447 -2.450190 15.433617 -1.676500 -1.480600 13.989000 8.495440 -7.000793 0.940713 -87.964694 19.363275 12.193331 25.033476 -37.286759 -9.546841 -0.335301 2.228298 0.806908 33.988510 29.240017 16.947000 -7.125000 0.000000 0.000000 5.432700 60.933300 2.112700 -9.178251 6.627372 1.003100 72.551970 5.572161 38.837190 -34.233053 46.033985 -12.979861 0.120719 -2.273456 16.752030 -34.056163 -23.983888 14.132500 7.125000 0.000000 0.000000 -6.795400 -55.110200 1.692700 
-9.677634 17.354450 2.818937 -167.491092 -79.058693 171.724323 16.629782 1.963051 -1.793960 -22.813985 -23.153316 -16.601898 -10.027577 10.949091 18.834536 1.418760 -8.179886 -6.754174 0.251700 -3.228400 -8.915300 -21.619369 -3.822782 -5.491662 43.852071 10.167445 22.768111 14.560291 1.384769 3.399346 -6.854644 -11.416603 -48.926205 -0.065700 -1.653200 4.548100 1.932087 3.813357 11.657128 1.034607 5.113162 -5.100358 0.056282 2.302686 -15.489087 -0.606941 -1.202292 -22.506001 1.478913 -2.371100 15.408803 -1.621600 -1.399100 13.927000 8.431085 -6.988606 0.942146 -87.315718 19.472178 13.526494 26.109476 -38.173930 -10.070419 -0.392704 2.184010 0.009709 34.330933 29.556816 17.360000 -7.125000 0.000000 0.000000 5.823800 61.410300 2.331200 -9.223529 6.651087 1.010351 73.248154 4.949351 38.892041 -33.930278 45.920158 -12.824786 0.095542 -2.282079 16.651279 -34.369409 -24.096704 14.331500 7.125000 0.000000 0.000000 -7.112300 -55.274200 1.800700 
-9.520978 17.351273 2.754412 -167.085834 -78.412630 171.474462 16.501398 1.819868 -1.856274 -21.707080 -23.416001 -16.938803 -9.953677 10.917399 18.583670 1.533686 -8.238652 -6.986573 0.268000 -3.330400 -9.200100 -21.919988 -3.621902 -5.424501 46.221744 13.037515 24.490601 14.900010 2.309771 1.439664 -7.603076 -11.762694 -51.639558 -0.349300 -3.797500 10.507600 2.090572 3.754254 11.744442 1.066375 5.065682 -5.078151 -0.021227 2.264635 -15.504295 -0.236929 -0.891952 -22.227027 1.448669 -2.044675 15.186508 -1.679000 -1.226500 13.704800 8.440322 -6.994072 0.946661 -87.068733 19.362630 14.296577 26.813316 -38.756977 -10.400738 -0.423708 2.168343 -0.428437 34.235622 29.251458 17.146500 -7.125000 0.000000 0.000000 5.782800 61.063600 2.267300 -9.219117 6.658073 1.027639 73.574692 4.522637 39.414004 -33.742861 45.829685 -12.693717 0.095681 -2.291667 16.407734 -34.221745 -24.338488 14.395600 7.125000 0.000000 0.000000 -6.917400 -55.505500 1.789900 
-9.372867 17.350835 2.690106 -167.503344 -77.794040 172.074418 16.383497 1.699260 -1.885624 -20.811279 -23.799988 -17.172894 -9.916935 10.847092 18.239122 1.629861 -8.339401 -7.195714 0.251300 -3.225900 -8.908200 -22.082012 -3.525993 -5.404552 47.096228 14.093888 24.713955 15.001512 2.646368 0.673607 -7.535892 -12.101717 -51.736019 -0.483000 -4.456800 12.365400 2.063539 3.697610 11.706901 1.087714 4.984859 -5.054013 -0.033513 2.231284 -15.433970 0.077278 -0.579671 -22.075253 1.488277 -1.691672 15.034584 -1.682100 -1.039400 13.562300 8.452754 -6.988804 0.943566 -86.862521 19.149161 14.928096 27.236384 -39.098930 -10.581433 -0.444345 2.161809 -0.531158 33.884132 28.791347 16.696300 -7.125000 0.000000 0.000000 5.457000 60.479600 2.063300 -9.226848 6.676860 1.048315 73.866651 4.027256 39.812863 -33.673852 45.801344 -12.603725 0.109658 -2.308329 16.167880 -33.656386 -24.146709 13.998800 7.125000 0.000000 0.000000 -6.310800 -55.163100 1.579400 
